<svg preserveAspectRatio="none" viewBox="0 0 13 13" fill="none" xmlns="http://www.w3.org/2000/svg">
<g id="Frame 13">
<rect width="13" height="13" rx="2" fill="white" fill-opacity="0.12"/>
<path id="Subtract" d="M5.84179 2.50125C6.39765 2.48079 6.89332 2.70119 7.29491 3.07547C7.6508 2.96432 7.97608 2.93901 8.34374 3.0159C8.86398 3.12594 9.31921 3.4384 9.60937 3.88407C9.93229 4.38172 9.98715 4.90658 9.86523 5.47586C10.1431 5.74486 10.3367 6.02203 10.4502 6.39676C10.6049 6.90716 10.5474 7.45839 10.291 7.92606C10.0178 8.43388 9.60752 8.73831 9.06347 8.90262C8.99249 9.25142 8.82919 9.57488 8.59081 9.83915C8.23351 10.2365 7.73191 10.4744 7.19823 10.4993C6.57961 10.5158 6.15697 10.3257 5.70116 9.92606C5.35628 10.0414 4.98651 10.0599 4.63183 9.97977C4.11422 9.86325 3.6638 9.54658 3.3789 9.09891C3.06924 8.60783 3.00986 8.08401 3.13573 7.52567C2.85754 7.25655 2.66806 6.98754 2.55273 6.61258C2.39624 6.10347 2.4503 5.55303 2.70312 5.08426C2.97508 4.57272 3.38846 4.2649 3.93456 4.09891C3.96175 3.99495 3.98309 3.90334 4.02148 3.80204C4.31555 3.02612 5.00131 2.54846 5.8203 2.50223C5.82746 2.50188 5.83463 2.50152 5.84179 2.50125ZM7.91112 7.887L7.9121 8.33524C7.91242 8.52156 7.94671 8.69261 7.76366 8.79813C7.64698 8.8654 7.52894 8.93571 7.4121 9.00321L6.5996 9.47293C6.47472 9.54527 6.30798 9.63482 6.1914 9.71024C6.44463 9.88431 6.6519 9.98275 6.96386 10.0149C7.42783 10.0387 7.81921 9.93735 8.1748 9.62528C8.4598 9.37508 8.64549 8.97091 8.65331 8.59305C8.66058 8.24117 8.65616 7.86992 8.65624 7.51493V7.02079C8.6564 6.93311 8.66172 6.84151 8.65429 6.75418C8.65128 6.71923 8.64639 6.68358 8.62206 6.65653C8.54615 6.57301 8.04024 6.30189 7.91015 6.22879L7.91112 7.887ZM6.01952 8.40946C5.89526 8.4801 5.7716 8.55178 5.64843 8.6243C5.55558 8.67862 5.34511 8.8248 5.24218 8.78641C5.06276 8.71944 4.88967 8.5943 4.71972 8.50321C4.3353 8.28766 3.95309 8.05185 3.56933 7.83817C3.53189 8.08622 3.55828 8.29418 3.63573 8.5325C3.79016 8.93958 4.04372 9.22525 4.44433 9.40848C4.8087 9.57504 5.28103 9.59757 5.65624 9.45536C5.78487 9.40658 5.92695 9.31918 6.04784 9.2493L6.52929 8.97098L7.05956 8.66629C7.1506 8.61413 7.24452 8.5623 7.33398 8.50711C7.41056 8.4598 7.43818 8.42428 7.43944 8.33133C7.44228 8.13552 7.4385 7.93752 7.43944 7.74149C7.4396 7.70274 7.4437 7.63531 7.43456 7.59989L7.42675 7.59696L6.01952 8.40946ZM7.67187 4.7454C7.46373 4.84938 7.18314 5.02161 6.97558 5.14188C7.42587 5.39628 7.87899 5.6659 8.32714 5.92606L8.76366 6.17899C8.84809 6.22798 9.09713 6.35064 9.1123 6.45633C9.14491 6.68375 9.12057 6.9314 9.12792 7.16239C9.12468 7.5653 9.1339 7.97327 9.12694 8.37332C9.19144 8.34519 9.23889 8.32269 9.30077 8.28934C9.6532 8.08584 9.9086 7.74828 10.0088 7.35379C10.1096 6.94876 10.0442 6.51949 9.82812 6.16239C9.73425 6.0019 9.61127 5.8602 9.46581 5.74442C9.42455 5.71206 9.38163 5.68191 9.33691 5.65457C9.18602 5.5627 7.8123 4.76084 7.7373 4.7454C7.71648 4.74116 7.69282 4.74361 7.67187 4.7454ZM3.86913 4.63309C3.49715 4.78776 3.20264 5.08627 3.05273 5.46024C2.90175 5.83935 2.9082 6.26349 3.0703 6.63797C3.25595 7.07332 3.47611 7.23981 3.86913 7.4661L4.27636 7.70047C4.56282 7.86512 4.87078 8.05217 5.15917 8.20926C5.19921 8.23262 5.27004 8.27523 5.31347 8.25614C5.5378 8.15745 5.80927 7.97544 6.02343 7.86161L4.62304 7.04813L4.23534 6.82352C4.1643 6.7825 3.9816 6.68266 3.93651 6.62918C3.85507 6.53168 3.88079 6.18366 3.88085 6.05497V5.12723C3.88095 5.061 3.89043 4.65385 3.86913 4.63309ZM5.55956 5.94071V7.05887C5.86713 7.23574 6.18988 7.41887 6.50097 7.58915L7.43944 7.06082V5.93875C7.22585 5.82054 7.01303 5.70096 6.80077 5.58036C6.73263 5.54196 6.56045 5.43985 6.49901 5.41434L5.55956 5.94071ZM5.78417 2.98465C5.36129 3.01821 4.98367 3.17629 4.70409 3.50418C4.5529 3.68106 4.44626 3.89179 4.39355 4.11844C4.33947 4.34781 4.35032 4.59322 4.35058 4.8284V5.4993L4.3496 5.98075C4.34873 6.37184 4.31146 6.31955 4.64745 6.5159L5.08691 6.77176L5.08788 6.47098V5.1077C5.08787 4.98047 5.06732 4.36619 5.12987 4.29325C5.20868 4.20193 5.60724 3.98696 5.72948 3.91629L6.80761 3.29325C6.53722 3.08279 6.12658 2.94374 5.78417 2.98465ZM7.74413 3.45829C7.42538 3.48547 7.2861 3.56083 7.01757 3.71512L6.60058 3.95438L5.99999 4.30106C5.89188 4.36317 5.77993 4.42267 5.6748 4.48954C5.64274 4.50992 5.60331 4.53506 5.58007 4.56571C5.54 4.61917 5.55925 5.29459 5.55956 5.41336L6.68163 4.76004C6.86926 4.65094 7.07207 4.5281 7.26073 4.42411C7.37795 4.35461 7.64613 4.16714 7.76073 4.20829C7.92179 4.26619 8.13604 4.41126 8.29198 4.4993C8.67484 4.71542 9.05878 4.95985 9.4414 5.17313C9.47554 4.73907 9.37204 4.32971 9.08593 3.99344C8.82004 3.68002 8.43931 3.48677 8.02929 3.45829C7.96492 3.45324 7.80919 3.44926 7.74413 3.45829Z" fill="black"/>
</g>
</svg>
